<svg id="Layer_1" data-name="Layer 1" xmlns="http://www.w3.org/2000/svg" viewBox="0 0 484 208.32"><defs><style>.cls-1{fill:#fff;}</style></defs><path class="cls-1" d="M154,243.65h35.58v18c8.66-11.7,20.6-20.36,39.09-20.36,29.26,0,57.11,22.93,57.11,64.83v.47c0,41.9-27.38,64.84-57.11,64.84-19,0-30.66-8.66-39.09-18.73v53.84H154Zm96.2,63v-.47c0-20.83-14-34.64-30.66-34.64s-30.43,13.81-30.43,34.64v.47c0,20.83,13.81,34.65,30.43,34.65S250.2,327.68,250.2,306.61Z" transform="translate(-154 -198.24)"/><path class="cls-1" d="M354.46,198.24H390V369.11H354.46Z" transform="translate(-154 -198.24)"/><path class="cls-1" d="M572.93,333.53V274.08H558V243.65h15V211.58h35.58v32.07H638v30.43H608.51v53.6c0,8.19,3.51,12.17,11.46,12.17a36.18,36.18,0,0,0,17.56-4.45V364c-7.49,4.45-16.15,7.26-28.09,7.26C587.67,371.22,572.93,362.55,572.93,333.53Z" transform="translate(-154 -198.24)"/><path class="cls-1" d="M299.93,243.65h35.58V369.11H299.93Z" transform="translate(-154 -198.24)"/><circle class="cls-1" cx="164.26" cy="18.33" r="18.33"/><path class="cls-1" d="M481.92,291.74c.88-.88,1.06-2.46,1.06-4.57l.95-50.78a8.58,8.58,0,0,1,1.08-4A5.74,5.74,0,1,0,474.6,229a5.79,5.79,0,0,0,.71,2.77c.08.15.27.43.27.43a9.24,9.24,0,0,1,1.19,4.85l.78,50.1c0,1.27,0,5.19,2.8,5.19A2.17,2.17,0,0,0,481.92,291.74Z" transform="translate(-154 -198.24)"/><path class="cls-1" d="M478.72,321.41c-.8.8-1.17,2.24-1.17,4.54L476.77,376a9.2,9.2,0,0,1-1.17,4.81s-.21.32-.29.47a5.78,5.78,0,0,0-.71,2.76A5.75,5.75,0,1,0,485,380.72a8.72,8.72,0,0,1-1.06-4L483,325.93c0-1.67,0-5.19-2.63-5.19A2.27,2.27,0,0,0,478.72,321.41Z" transform="translate(-154 -198.24)"/><path class="cls-1" d="M495.16,308.13c.89.88,2.47,1.06,4.57,1.06l50.79.95a8.58,8.58,0,0,1,4,1.08,5.73,5.73,0,1,0,.57-9.69c-.15.08-.43.26-.43.26a9.14,9.14,0,0,1-4.85,1.19l-50.1.79c-1.27,0-5.19,0-5.19,2.79A2.18,2.18,0,0,0,495.16,308.13Z" transform="translate(-154 -198.24)"/><path class="cls-1" d="M465.5,304.93c-.8-.79-2.24-1.16-4.54-1.16L410.87,303a9.11,9.11,0,0,1-4.81-1.17l-.47-.28a5.75,5.75,0,1,0,.6,9.67,8.72,8.72,0,0,1,4-1.06l50.76-.95c1.67,0,5.18,0,5.18-2.63A2.28,2.28,0,0,0,465.5,304.93Z" transform="translate(-154 -198.24)"/><path class="cls-1" d="M489.72,318.15c0,1.25,1,2.49,2.48,4l35.23,36.58a8.58,8.58,0,0,1,2.08,3.6,5.74,5.74,0,1,0,9.72-5,5.79,5.79,0,0,0-2.46-1.46l-.49-.12a9.14,9.14,0,0,1-4.28-2.59l-36-34.87c-.9-.9-3.67-3.67-5.64-1.69A2.13,2.13,0,0,0,489.72,318.15Z" transform="translate(-154 -198.24)"/><path class="cls-1" d="M471,294.9c0-1.12-.76-2.4-2.38-4l-34.87-36a9.12,9.12,0,0,1-2.57-4.22c0-.05-.08-.37-.13-.54a5.79,5.79,0,0,0-1.46-2.46,5.75,5.75,0,1,0-5,9.73,8.65,8.65,0,0,1,3.6,2.09l36.56,35.23c1.18,1.18,3.67,3.66,5.53,1.8A2.28,2.28,0,0,0,471,294.9Z" transform="translate(-154 -198.24)"/><path class="cls-1" d="M468.76,315.93c-1.25,0-2.49,1-4,2.48L428.2,353.65a8.51,8.51,0,0,1-3.61,2.07,5.74,5.74,0,1,0,5,9.72,5.73,5.73,0,0,0,1.46-2.46c.05-.16.12-.49.12-.49a9.14,9.14,0,0,1,2.59-4.28l34.87-36c.9-.9,3.67-3.67,1.69-5.65A2.17,2.17,0,0,0,468.76,315.93Z" transform="translate(-154 -198.24)"/><path class="cls-1" d="M492,297.21c1.13,0,2.41-.75,4-2.38L532,260a9.16,9.16,0,0,1,4.22-2.58l.54-.13a5.75,5.75,0,1,0-7.27-6.42,8.58,8.58,0,0,1-2.1,3.6L492.18,291c-1.18,1.19-3.66,3.67-1.8,5.53A2.21,2.21,0,0,0,492,297.21Z" transform="translate(-154 -198.24)"/><path class="cls-1" d="M480.35,292.38a14.18,14.18,0,1,1-14.18,14.18,14.2,14.2,0,0,1,14.18-14.18m0-9.55a23.73,23.73,0,1,0,23.73,23.73,23.73,23.73,0,0,0-23.73-23.73Z" transform="translate(-154 -198.24)"/><path class="cls-1" d="M480.35,263.34A43.22,43.22,0,1,1,449.78,276a42.91,42.91,0,0,1,30.57-12.66m0-19.74a63,63,0,1,0,63,63,63,63,0,0,0-63-63Z" transform="translate(-154 -198.24)"/></svg>